<svg width="21" height="21" viewBox="0 0 21 21" fill="none" xmlns="http://www.w3.org/2000/svg">
<path d="M14.967 3.82138C14.6365 3.82091 14.31 3.89464 14.0117 4.03713V3.50293C14.0119 2.97164 13.8223 2.45775 13.4772 2.05386C13.132 1.64997 12.6539 1.38264 12.1291 1.30005C11.6043 1.21746 11.0672 1.32504 10.6146 1.6034C10.1621 1.88176 9.82389 2.3126 9.66091 2.81827C9.32144 2.63414 8.93997 2.54137 8.55386 2.54903C8.16775 2.55669 7.79026 2.66453 7.45837 2.86198C7.12648 3.05943 6.85158 3.33971 6.6606 3.67537C6.46962 4.01103 6.36913 4.39054 6.36895 4.77672V9.87189L6.06484 9.38386C5.76945 8.8741 5.28426 8.50201 4.71534 8.34892C4.14641 8.19584 3.54002 8.2742 3.0287 8.56689C2.51739 8.85959 2.14274 9.3428 1.98665 9.9109C1.83055 10.479 1.90571 11.0858 2.1957 11.5987C3.46949 14.2872 4.49887 16.1939 5.67633 17.3857C6.86573 18.5926 8.21595 19.1069 10.1903 19.1069C12.0477 19.1048 13.8285 18.366 15.1419 17.0526C16.4553 15.7392 17.1941 13.9584 17.1962 12.101V6.05051C17.1962 5.45931 16.9613 4.89232 16.5433 4.47428C16.1252 4.05624 15.5582 3.82138 14.967 3.82138ZM15.9224 12.101C15.9207 13.6207 15.3162 15.0777 14.2416 16.1523C13.167 17.2269 11.71 17.8314 10.1903 17.8331C8.56783 17.8331 7.52253 17.4446 6.58152 16.4916C5.52825 15.424 4.55858 13.6136 3.33574 11.0326C3.32858 11.0168 3.3206 11.0014 3.31186 10.9865C3.18517 10.767 3.15086 10.5061 3.21648 10.2614C3.2821 10.0166 3.44227 9.8079 3.66175 9.68122C3.88124 9.55453 4.14206 9.52022 4.38684 9.58584C4.63161 9.65146 4.8403 9.81162 4.96699 10.0311C4.97023 10.0375 4.97396 10.0436 4.97813 10.0494L6.46449 12.4378C6.5375 12.5556 6.64696 12.6464 6.77625 12.6963C6.90554 12.7463 7.0476 12.7527 7.18087 12.7146C7.31415 12.6766 7.43135 12.596 7.51471 12.4853C7.59806 12.3745 7.64302 12.2396 7.64274 12.101V4.77672C7.64274 4.52335 7.7434 4.28036 7.92256 4.10119C8.10172 3.92203 8.34471 3.82138 8.59809 3.82138C8.85146 3.82138 9.09445 3.92203 9.27362 4.10119C9.45278 4.28036 9.55343 4.52335 9.55343 4.77672V9.55344C9.55343 9.72235 9.62053 9.88435 9.73997 10.0038C9.85941 10.1232 10.0214 10.1903 10.1903 10.1903C10.3592 10.1903 10.5212 10.1232 10.6407 10.0038C10.7601 9.88435 10.8272 9.72235 10.8272 9.55344V3.50293C10.8272 3.24956 10.9279 3.00657 11.107 2.8274C11.2862 2.64824 11.5292 2.54759 11.7826 2.54759C12.0359 2.54759 12.2789 2.64824 12.4581 2.8274C12.6373 3.00657 12.7379 3.24956 12.7379 3.50293V9.55344C12.7379 9.72235 12.805 9.88435 12.9244 10.0038C13.0439 10.1232 13.2059 10.1903 13.3748 10.1903C13.5437 10.1903 13.7057 10.1232 13.8252 10.0038C13.9446 9.88435 14.0117 9.72235 14.0117 9.55344V6.05051C14.0117 5.79714 14.1123 5.55415 14.2915 5.37498C14.4707 5.19582 14.7137 5.09517 14.967 5.09517C15.2204 5.09517 15.4634 5.19582 15.6426 5.37498C15.8217 5.55415 15.9224 5.79714 15.9224 6.05051V12.101Z" fill="black"/>
</svg>
